<?xml version="1.0" encoding="UTF-8"?>
<svg xmlns="http://www.w3.org/2000/svg" width="400" height="240" viewBox="0 0 400 240">
<defs><linearGradient id="bg" x1="0" y1="0" x2="0" y2="1"><stop offset="0" stop-color="#b7d4ee"/><stop offset="1" stop-color="#f1f6fb"/></linearGradient></defs>
<rect width="400" height="240" fill="url(#bg)"/><polygon points="0,200 110,70 220,200" fill="#7d8fa8"/><polygon points="90,200 250,40 400,200" fill="#5f7392"/>
<polygon points="222,74 250,40 278,74 262,68 250,80 236,68" fill="#ffffff"/><polygon points="95,96 110,70 125,96 116,92 110,100 103,92" fill="#ffffff"/>
<path d="M0 205 Q120 190 240 205 T400 200 L400 240 L0 240Z" fill="#4a6b47"/>
<line x1="60" y1="150" x2="150" y2="170" stroke="#3d2a1b" stroke-width="2"/><g><polygon points="70,152 82,155 72,164" fill="#d1604f"/><polygon points="92,157 104,160 94,169" fill="#e0a526"/><polygon points="114,162 126,165 116,174" fill="#3a6ea5"/><polygon points="134,166 144,168 136,177" fill="#ffffff"/></g>
</svg>
