<?xml version="1.0" encoding="UTF-8"?>
<svg xmlns="http://www.w3.org/2000/svg" width="400" height="400" viewBox="0 0 400 400">
<defs><linearGradient id="bg" x1="0" y1="0" x2="0" y2="1"><stop offset="0" stop-color="#f9e8de"/><stop offset="1" stop-color="#f0c3ad"/></linearGradient></defs>
<rect width="400" height="400" fill="url(#bg)"/><ellipse cx="200" cy="350" rx="130" ry="16" fill="#000000" opacity="0.15"/><path d="M140 75 Q200 110 260 75 L335 115 L305 170 L282 156 L282 330 L118 330 L118 156 L95 170 L65 115Z" fill="#12304a"/><path d="M160 76 Q200 100 240 76" stroke="#0c2236" stroke-width="8" fill="none"/>
<polygon points="188,270 212,270 208,208 192,208" fill="#f7f1e3"/><rect x="190" y="196" width="20" height="12" fill="#e0a526"/><polygon points="190,196 210,196 200,182" fill="#fbf6e9"/>
<polygon points="200,212 300,190 300,232" fill="#fff3b0" opacity="0.25"/><polygon points="200,212 100,190 100,232" fill="#fff3b0" opacity="0.2"/>
<rect x="150" y="285" width="100" height="7" rx="3" fill="#e0a526"/>
</svg>
