<?xml version="1.0" encoding="UTF-8"?>
<svg xmlns="http://www.w3.org/2000/svg" width="400" height="240" viewBox="0 0 400 240">
<defs><linearGradient id="bg" x1="0" y1="0" x2="0" y2="1"><stop offset="0" stop-color="#f7d794"/><stop offset="1" stop-color="#f3a683"/></linearGradient></defs>
<rect width="400" height="240" fill="url(#bg)"/><rect x="90" y="110" width="220" height="90" fill="#f7f1e3"/><polygon points="80,112 200,58 320,112" fill="#12304a"/>
<rect x="120" y="130" width="34" height="34" fill="#a9d6f5"/><rect x="246" y="130" width="34" height="34" fill="#a9d6f5"/><rect x="180" y="146" width="40" height="54" fill="#5b3a29"/>
<rect x="196" y="30" width="6" height="30" fill="#3d2a1b"/><polygon points="202,32 232,42 202,52" fill="#e0a526"/>
<path d="M0 200 Q100 190 200 200 T400 198 L400 240 L0 240Z" fill="#7aa05a"/>
<circle cx="50" cy="216" r="9" fill="#f1c9a5"/><rect x="42" y="224" width="16" height="14" fill="#2c7a7b"/><circle cx="350" cy="216" r="9" fill="#f1c9a5"/><rect x="342" y="224" width="16" height="14" fill="#d1604f"/>
</svg>
